<svg width="512" height="512" viewBox="0 0 512 512" fill="none" xmlns="http://www.w3.org/2000/svg">
<path d="M350.422 425.351L352.762 427.55L355.966 427.77C392.361 430.273 425.446 421.618 450.3 399.235C475.129 376.874 490.488 341.941 493.757 294.394C497.015 246.993 487.76 194.679 468.631 153.339C449.713 112.455 419.714 79.5903 380.091 76.8661L376.87 76.6447L374.243 78.5212C367.811 83.1151 364.088 89.4233 364.312 97.144C364.507 103.894 367.734 110.396 371.406 116.14C375.2 122.072 380.357 128.51 385.923 135.251C387.33 136.955 388.77 138.686 390.236 140.449C394.687 145.801 399.387 151.452 404.2 157.58C429.659 189.998 456.159 233.179 448.363 292.605L448.344 292.756L448.329 292.908C445.742 319.626 436.822 338.125 425.688 351.469C414.463 364.922 400.585 373.616 387.38 380.041C381.071 383.11 375.031 385.61 369.46 387.915L368.636 388.256C363.067 390.562 357.514 392.871 353.295 395.342C349.591 397.512 343.823 401.501 342.765 408.469C341.663 415.721 346.273 421.454 350.422 425.351Z" fill="#69F0AE" stroke="black" stroke-width="18"/>
<path d="M171.537 75.8159C177.41 64.8606 188.902 58 201.358 58H365.143C385.07 58 400.726 75.0594 399.018 94.9133L371.384 416.228C370.155 430.526 360.174 442.388 346.55 445.601C224.903 474.288 143.905 464.819 55.8322 436.706C39.7101 431.56 30.4836 414.668 34.8031 398.205C59.0101 305.946 93.9834 220.467 171.537 75.8159Z" fill="#69F0AE" stroke="black" stroke-width="18"/>
<path d="M118.153 69.9742C124.674 56.5338 138.301 48 153.24 48H365.879C391.909 48 410.633 73.0127 403.299 97.9878L365.421 226.988C360.545 243.594 345.308 255 328.001 255H90.6441C61.8543 255 42.9883 224.876 55.5567 198.974L118.153 69.9742Z" fill="#69F0AE" stroke="black" stroke-width="18"/>
<rect x="192.34" y="215" width="45.0364" height="80.2346" rx="11" transform="rotate(10.2961 192.34 215)" fill="#69F0AE" stroke="black" stroke-width="18"/>
<path d="M176.715 231.492C170.434 211.867 133.179 230.594 111.217 210.994C83.7107 186.445 118.68 151.108 100.214 154.994C81.2106 158.993 59.6878 204.971 88.7151 231.492C112.262 253.007 179.115 238.992 176.715 231.492Z" fill="#F8F8F8" fill-opacity="0.6"/>
<path d="M252.187 229.488C262.843 211.851 295.722 228.59 317.684 208.989C345.191 184.44 336.129 159.994 358.129 159.996C367.626 159.997 369.214 202.966 340.186 229.488C316.639 251.003 244.629 241.996 252.187 229.488Z" fill="#F8F8F8" fill-opacity="0.6"/>
<path d="M408.618 124.46C406.726 128.674 400.196 130.581 420.419 151.898C445.748 178.597 438.461 189.661 457.998 193C466.433 194.441 466.403 165.248 439.651 136.509C417.95 113.194 411.097 118.941 408.618 124.46Z" fill="#F8F8F8" fill-opacity="0.6"/>
<path d="M193.435 267.177C193.891 264.696 197.064 263.85 199.118 265.313C203.204 268.224 207.537 268.602 214.075 266.943C216.29 266.381 218.448 268.241 218.034 270.489L215.833 282.465C215.034 286.81 210.864 289.686 206.518 288.887L197.87 287.297C193.525 286.498 190.65 282.328 191.448 277.982L193.435 267.177Z" fill="#F8F8F8" fill-opacity="0.6"/>
</svg>
