<svg width="510" height="743" viewBox="0 0 510 743" fill="none" xmlns="http://www.w3.org/2000/svg">
<mask id="mask0_1149_843" style="mask-type:alpha" maskUnits="userSpaceOnUse" x="31" y="37" width="382" height="330">
<path d="M62.7833 196.89C99.5619 105.971 178.004 23.9983 274.924 39.014C277.751 39.452 280.504 39.932 283.171 40.4569C289.013 41.2636 299.866 43.7922 308.642 45.9549C317.64 48.1726 326.318 51.595 334.011 56.7628C342.232 62.2857 351.115 68.9294 360.686 76.0521C377.193 88.338 395.746 109.296 406.063 127.1C421.781 154.224 408.462 177.009 377.554 182.24C347.948 187.251 307.813 192.803 273.187 212.797C228.156 238.8 184.169 292.271 166.527 320.604C161.61 328.501 149.736 345.508 142.096 350.815C109.086 373.746 59.3942 373.721 37.6213 339.936C26.6159 322.86 31.252 310.309 37.6976 269.406C38.8445 262.128 40.495 254.857 42.9424 247.907C49.2391 230.027 55.877 213.962 62.7833 196.89Z" fill="#F8F8F8"/>
</mask>
<g mask="url(#mask0_1149_843)">
<ellipse cx="345.57" cy="333.057" rx="345.57" ry="333.057" transform="matrix(0.519668 -0.854368 0.918141 0.396253 -149.041 487.488)" fill="#FF0266"/>
<ellipse cx="291.742" cy="285.055" rx="291.742" ry="285.055" transform="matrix(0.519668 -0.854368 0.918141 0.396253 -77.9258 465.732)" fill="#FFDE03"/>
<ellipse cx="243.118" cy="237.546" rx="243.118" ry="237.546" transform="matrix(0.519668 -0.854368 0.918141 0.396253 -8.27185 441.757)" fill="#69F0AE"/>
<ellipse cx="193.758" cy="189.317" rx="193.758" ry="189.317" transform="matrix(0.519668 -0.854368 0.918141 0.396253 61.3822 417.781)" fill="#7B1FA2"/>
</g>
<mask id="mask1_1149_843" style="mask-type:alpha" maskUnits="userSpaceOnUse" x="24" y="35" width="462" height="673">
<ellipse cx="255" cy="371.5" rx="231" ry="336.5" fill="#D9D9D9"/>
</mask>
<g mask="url(#mask1_1149_843)">
<path d="M940.797 635.945C907.253 664.166 745.577 713.25 470.837 703.501C209.132 716.5 39.008 703.501 -7.92267 635.945C-54.8534 568.389 143.299 551.422 275.617 593.017C331.514 569.465 407.557 563.911 466.222 566.724C521.255 569.362 590.378 577.461 645.366 574.003C812.251 563.509 985.011 598.748 940.797 635.945Z" fill="#69F0AE"/>
<path d="M-119 619.253C-119 569.745 -63.4818 587.423 -17.9325 615.089C13.4706 634.162 13.6537 699.128 -12.8277 673.658V673.658C-62.6949 625.697 -23.5752 607.525 37.9787 585.372C84.3659 568.677 192.16 580.475 242.464 587.302C260.216 589.712 278.237 589.572 295.913 586.657C404.725 568.715 474.398 566.758 570.028 578.727C589.759 581.197 609.773 580.972 629.486 578.367C712.84 567.354 750.632 574.743 817.987 582.765C904.562 599.526 943.562 611.76 943.049 632.61C942.736 645.326 939.17 655.01 933.727 662.15C906.27 698.165 896.732 650.326 940.994 640.74C991.666 629.766 1025.5 623.126 993.529 565.173" stroke="black" stroke-width="4" stroke-linecap="round" stroke-linejoin="round"/>
<path d="M208.636 626.889C213.725 630.154 217.24 630.702 219.383 636.985M219.383 636.985C221.808 630.723 221.698 625.953 220.035 620.049M219.383 636.985C223.599 632.208 226.04 630.525 230.457 629.494" stroke="black" stroke-width="4" stroke-linecap="round" stroke-linejoin="round"/>
<path d="M285.497 664.994C291.369 667.97 292.307 671.373 293.639 677.695C294.821 672.15 296.809 670.327 302.432 669.228" stroke="black" stroke-width="4" stroke-linecap="round" stroke-linejoin="round"/>
<path d="M415.118 618.747C420.99 621.723 421.928 625.126 423.26 631.448C424.443 625.903 426.43 624.08 432.054 622.98" stroke="black" stroke-width="4" stroke-linecap="round" stroke-linejoin="round"/>
<path d="M505.57 385.468C540.528 448.679 447.274 515.8 375.363 515.8C303.451 515.8 209.024 473.442 245.156 385.468C273.557 316.317 317.64 288.932 358.922 272.551C380.074 264.158 404.411 261.584 423.879 273.366C461.303 296.015 481.432 341.822 505.57 385.468Z" fill="#69F0AE"/>
<path d="M340.578 594.268C356.398 564.576 364.353 544.472 361.691 444.863C359.789 384.144 361.691 310.791 379.556 301.657V301.657C398.862 291.787 392.373 327.018 374.075 338.651C348.216 355.092 324.182 376.556 295.303 426.999C293.765 429.686 295.774 433.015 298.87 432.945C362.645 431.504 396.721 435.287 433.802 469.003" stroke="black" stroke-width="4" stroke-linecap="round" stroke-linejoin="round"/>
<path d="M169.303 523.114C169.303 549.306 148.382 561.646 122.575 561.646C96.7679 561.646 75.847 549.306 75.847 523.114C75.847 496.922 108.622 534.97 122.575 510.929C136.529 486.887 169.303 496.922 169.303 523.114Z" fill="#69F0AE"/>
<path d="M114.468 593.386C123.538 581.133 125.997 571.892 126.139 551.964C126.142 551.571 126.084 551.166 125.969 550.791C121.534 536.345 114.94 532.217 94.3619 534.1M131.655 534.1C135.255 524.89 140.117 523.868 150.788 524.979" stroke="black" stroke-width="4" stroke-linecap="round" stroke-linejoin="round"/>
</g>
<path d="M484 371.5C484 464.07 458.239 547.789 416.693 608.31C375.14 668.839 317.939 706 255 706C192.061 706 134.86 668.839 93.3072 608.31C51.7611 547.789 26 464.07 26 371.5C26 278.93 51.7611 195.211 93.3072 134.69C134.86 74.1607 192.061 37 255 37C317.939 37 375.14 74.1607 416.693 134.69C458.239 195.211 484 278.93 484 371.5Z" stroke="black" stroke-width="4"/>
<path d="M508 371.5C508 473.735 479.553 566.204 433.663 633.058C387.768 699.922 324.567 741 255 741C185.433 741 122.232 699.922 76.3367 633.058C30.4474 566.204 2 473.735 2 371.5C2 269.265 30.4474 176.796 76.3367 109.942C122.232 43.0781 185.433 2 255 2C324.567 2 387.768 43.0781 433.663 109.942C479.553 176.796 508 269.265 508 371.5Z" stroke="black" stroke-width="4"/>
</svg>
