<svg width="512" height="512" viewBox="0 0 512 512" fill="none" xmlns="http://www.w3.org/2000/svg">
<ellipse cx="256.482" cy="256" rx="134.482" ry="196" fill="#FAF9FF"/>
<mask id="mask0_1885_10937" style="mask-type:alpha" maskUnits="userSpaceOnUse" x="128" y="73" width="245" height="296">
<path d="M136.412 191.221C143.561 122.999 200.005 66.1513 268.103 74.4005C274.388 75.1617 280.377 76.1717 285.889 77.4821C290.645 78.2753 297.903 80.8392 303.283 82.9045C308.026 84.7258 312.595 87.0709 316.355 90.4884C319.733 93.5576 322.771 96.9973 325.952 100.739C340.518 117.873 357.748 140.257 367.534 160.505C380.27 186.856 369.522 208.443 340.757 213.844C322.621 217.249 300.234 222.598 278.192 237.973C230.672 271.117 196.053 336.581 190.179 355.549C184.43 374.112 164.29 370.562 154.088 354.022C141.356 333.38 136.257 325.185 129.355 277.349C128.231 269.556 128.363 261.58 129.46 253.783C132.807 229.995 134.163 212.692 136.412 191.221Z" fill="#F8F8F8"/>
</mask>
<g mask="url(#mask0_1885_10937)">
<ellipse cx="307.835" cy="265.864" rx="307.835" ry="265.864" transform="matrix(0.449751 -0.893154 0.88674 0.462269 -47.3242 493.777)" fill="#FF0266"/>
<ellipse cx="259.884" cy="227.546" rx="259.884" ry="227.546" transform="matrix(0.449751 -0.893154 0.88674 0.462269 7.5 473.518)" fill="#FFDE03"/>
<ellipse cx="216.57" cy="189.622" rx="216.57" ry="189.622" transform="matrix(0.449751 -0.893154 0.88674 0.462269 61.2031 451.188)" fill="#69F0AE"/>
<ellipse cx="172.6" cy="151.123" rx="172.6" ry="151.123" transform="matrix(0.449751 -0.893154 0.88674 0.462269 114.9 428.861)" fill="#7B1FA2"/>
</g>
<path d="M382.38 256C382.38 308.615 367.732 355.872 344.497 389.736C321.234 423.64 289.97 443.416 256.482 443.416C222.994 443.416 191.729 423.64 168.467 389.736C145.231 355.872 130.584 308.615 130.584 256C130.584 203.385 145.231 156.128 168.467 122.264C191.729 88.3596 222.994 68.5839 256.482 68.5839C289.97 68.5839 321.234 88.3596 344.497 122.264C367.732 156.128 382.38 203.385 382.38 256Z" stroke="black" stroke-width="17.1679"/>
<path d="M410.986 256.187C410.986 320.378 393.112 378.096 364.68 419.518C336.22 460.98 297.817 485.374 256.493 485.374C215.169 485.374 176.766 460.98 148.306 419.518C119.875 378.096 102 320.378 102 256.187C102 191.996 119.875 134.278 148.306 92.8566C176.766 51.3946 215.169 27 256.493 27C297.817 27 336.22 51.3946 364.68 92.8566C393.112 134.278 410.986 191.996 410.986 256.187Z" stroke="black" stroke-width="18"/>
</svg>
