<svg width="510" height="743" viewBox="0 0 510 743" fill="none" xmlns="http://www.w3.org/2000/svg">
<path d="M484 371.5C484 464.07 458.239 547.789 416.693 608.31C375.14 668.839 317.939 706 255 706C192.061 706 134.86 668.839 93.3072 608.31C51.7611 547.789 26 464.07 26 371.5C26 278.93 51.7611 195.211 93.3072 134.69C134.86 74.1607 192.061 37 255 37C317.939 37 375.14 74.1607 416.693 134.69C458.239 195.211 484 278.93 484 371.5Z" fill="#1E1E1E"/>
<path d="M484 371.5C484 464.07 458.239 547.789 416.693 608.31C375.14 668.839 317.939 706 255 706C192.061 706 134.86 668.839 93.3072 608.31C51.7611 547.789 26 464.07 26 371.5C26 278.93 51.7611 195.211 93.3072 134.69C134.86 74.1607 192.061 37 255 37C317.939 37 375.14 74.1607 416.693 134.69C458.239 195.211 484 278.93 484 371.5Z" fill="black" fill-opacity="0.2"/>
<path d="M484 371.5C484 464.07 458.239 547.789 416.693 608.31C375.14 668.839 317.939 706 255 706C192.061 706 134.86 668.839 93.3072 608.31C51.7611 547.789 26 464.07 26 371.5C26 278.93 51.7611 195.211 93.3072 134.69C134.86 74.1607 192.061 37 255 37C317.939 37 375.14 74.1607 416.693 134.69C458.239 195.211 484 278.93 484 371.5Z" stroke="black" stroke-width="4"/>
<path d="M508 371.5C508 473.735 479.553 566.204 433.663 633.058C387.768 699.922 324.567 741 255 741C185.433 741 122.232 699.922 76.3367 633.058C30.4474 566.204 2 473.735 2 371.5C2 269.265 30.4474 176.796 76.3367 109.942C122.232 43.0781 185.433 2 255 2C324.567 2 387.768 43.0781 433.663 109.942C479.553 176.796 508 269.265 508 371.5Z" stroke="black" stroke-width="4"/>
<mask id="mask0_1149_639" style="mask-type:alpha" maskUnits="userSpaceOnUse" x="0" y="2" width="382" height="330">
<path d="M31.7833 161.89C68.5619 70.971 147.004 -11.0017 243.924 4.01396C246.751 4.45197 249.504 4.93198 252.171 5.45686C258.013 6.26365 268.866 8.79225 277.642 10.9549C286.64 13.1726 295.318 16.595 303.011 21.7628C311.232 27.2857 320.115 33.9294 329.686 41.0521C346.193 53.338 364.746 74.2964 375.063 92.1005C390.781 119.224 377.462 142.009 346.554 147.24C316.948 152.251 276.813 157.803 242.187 177.797C197.156 203.8 153.169 257.271 135.527 285.604C130.61 293.501 118.736 310.508 111.096 315.815C78.0864 338.746 28.3942 338.721 6.62127 304.936C-4.38408 287.86 0.251984 275.309 6.69757 234.406C7.84452 227.128 9.49499 219.857 11.9424 212.907C18.2391 195.027 24.877 178.962 31.7833 161.89Z" fill="#F8F8F8"/>
</mask>
<g mask="url(#mask0_1149_639)">
<path d="M484 371.5C484 464.07 458.239 547.789 416.693 608.31C375.14 668.839 317.939 706 255 706C192.061 706 134.86 668.839 93.3072 608.31C51.7611 547.789 26 464.07 26 371.5C26 278.93 51.7611 195.211 93.3072 134.69C134.86 74.1607 192.061 37 255 37C317.939 37 375.14 74.1607 416.693 134.69C458.239 195.211 484 278.93 484 371.5Z" fill="#E9E9E9" stroke="black" stroke-width="4"/>
</g>
<mask id="mask1_1149_639" style="mask-type:alpha" maskUnits="userSpaceOnUse" x="24" y="35" width="462" height="673">
<path d="M484 371.5C484 464.07 458.239 547.789 416.693 608.31C375.14 668.839 317.939 706 255 706C192.061 706 134.86 668.839 93.3072 608.31C51.7611 547.789 26 464.07 26 371.5C26 278.93 51.7611 195.211 93.3072 134.69C134.86 74.1607 192.061 37 255 37C317.939 37 375.14 74.1607 416.693 134.69C458.239 195.211 484 278.93 484 371.5Z" fill="#1E1E1E"/>
<path d="M484 371.5C484 464.07 458.239 547.789 416.693 608.31C375.14 668.839 317.939 706 255 706C192.061 706 134.86 668.839 93.3072 608.31C51.7611 547.789 26 464.07 26 371.5C26 278.93 51.7611 195.211 93.3072 134.69C134.86 74.1607 192.061 37 255 37C317.939 37 375.14 74.1607 416.693 134.69C458.239 195.211 484 278.93 484 371.5Z" fill="black" fill-opacity="0.2"/>
<path d="M484 371.5C484 464.07 458.239 547.789 416.693 608.31C375.14 668.839 317.939 706 255 706C192.061 706 134.86 668.839 93.3072 608.31C51.7611 547.789 26 464.07 26 371.5C26 278.93 51.7611 195.211 93.3072 134.69C134.86 74.1607 192.061 37 255 37C317.939 37 375.14 74.1607 416.693 134.69C458.239 195.211 484 278.93 484 371.5Z" stroke="black" stroke-width="4"/>
</mask>
<g mask="url(#mask1_1149_639)">
<path d="M312.027 461.779C315.22 475.427 333.632 494.951 346.65 501.476C397.204 530.408 438.83 515.44 461.822 524.314C484.815 533.189 503.359 541.88 507.849 575.308C512.338 608.736 479.356 630.313 446.15 642.462M317.195 506.368C317.673 523.389 340.999 557.125 352.773 563.531C405.266 592.091 422.085 598.265 434.965 619.955M107.773 646.148C86.0744 698.391 99.8261 735.604 153.87 734.62C174.65 736.464 201.786 719.277 215.639 705.978C223.824 696.604 230.619 698.477 239.853 699.233C240.205 699.262 240.552 699.353 240.902 699.4C244.731 699.92 248.882 691.877 235.21 692.324C229.799 692.501 232.569 699.273 229.909 711.311C228.498 723.24 220.322 736.61 208.332 745.884C187.644 761.886 182.057 758.947 168.634 757.982C168.868 773.797 192.122 786.5 220.221 773.305C263.314 748.773 277.752 706.949 252.78 663.719C242.271 645.527 211.638 660.964 173.974 687.673C159.613 700.315 153.694 689.997 155.204 671.991M107.773 646.148C71.7014 657.973 61.0464 654.167 52.2973 636.548C52.1908 636.333 52.1012 636.1 52.037 635.869C44.8564 610.098 55.4699 593.451 75.5656 579.261C84.5513 572.916 93.373 567.658 101.865 563.367M107.773 646.148C119.254 618.505 124.094 607.065 141.101 587.375M185.04 541.953C176.289 550.265 163.924 563.26 157.243 570.067M97.6544 681.877C18.2118 699.511 12.6992 635.83 12.2174 613.514C11.5806 584.024 16.5461 568.043 49.0354 543.693C49.334 543.469 49.6781 543.28 50.0271 543.149C97.0269 525.39 122.063 517.6 138.915 511.034C145.77 508.364 147.614 508.989 152.689 506.135C160.619 501.675 171.163 493.178 180.549 484.585M200.17 470.392C193.48 475.872 184.008 481.671 180.549 484.585M111.067 521.044C112.709 521.953 53.3613 498.857 73.1499 472.152C78.5507 464.863 83.0605 461.895 95.8407 462.469M434.965 619.955C450.435 601.164 487.904 583.773 459.097 560.2C434.131 539.77 414.787 560.806 376.655 545.67C361.965 541.695 331.033 526.454 318.37 513.42M434.965 619.955C439.539 627.111 443.02 634.536 446.15 642.462M446.15 642.462C446.838 644.204 447.508 645.97 448.17 647.763C460.365 703.948 429.768 727.487 387.558 719.626C387.268 719.572 386.966 719.55 386.672 719.551C359.684 719.678 338.192 652.556 315.793 656.243C293.27 659.951 298.894 679.767 303.549 697.514C306.69 712.307 314.697 718.405 324.933 727.366C303.322 733.134 282.258 705.157 276.311 688.032C265.603 657.197 270.586 609.469 322.212 620.519C363.05 632.61 361.573 665.423 390.282 677.868C409.918 686.38 413.19 673.91 407.144 658.048M321.135 477.013C338.773 473.79 339.243 466.87 362.483 435.671C367.153 429.026 372.28 423.566 379.17 418.69M180.549 484.585C164.786 477.854 139.962 468.96 126.459 464.795M63.2878 538.183C45.8407 531.382 17.1198 505.029 25.1305 469.93C27.0931 461.331 46.9531 436.398 78.145 428.905C93.6336 425.184 102.132 428.909 121.98 433.66M175.576 550.074C167.449 546.853 160.436 543.994 144.115 547.685M162.771 641.486C164.743 636.477 167.077 631.46 169.763 626.619C189.976 590.186 230.582 586.008 269.115 531.23C284.936 547.395 315.909 575.19 335.462 588.734C370.025 612.676 375.721 607.208 393.321 635.355C393.43 635.53 393.558 635.705 393.692 635.861C395.95 638.498 398.026 641.273 399.885 644.096M162.771 641.486C188.564 631.756 200.63 633.011 220.701 639.327C191.747 647.688 176.887 654.164 155.204 671.991M162.771 641.486C158.514 652.304 155.951 663.087 155.204 671.991M101.865 563.367C123.31 565.961 128.9 574.744 141.101 587.375M101.865 563.367C114.843 556.811 133.271 550.137 144.115 547.685M141.101 587.375C145.779 581.959 151.317 576.104 157.243 570.067M144.115 547.685C156.465 556.634 157.716 563.83 157.243 570.067M399.885 644.096L389.607 656.717L407.144 658.048M399.885 644.096C402.95 648.751 405.424 653.537 407.144 658.048M183.787 441.952C176.722 432.244 171.521 424.138 171.453 405.481C173.057 381.051 180.688 374.566 193.362 363.378C194.213 362.626 194.751 361.539 194.588 360.416C194.221 357.896 192.893 355.833 189.688 352.47C189.543 352.318 189.381 352.174 189.213 352.049C174.999 341.497 158.825 346.622 130.92 380.783C130.66 381.101 130.441 381.475 130.291 381.858C121.553 404.105 118.891 414.099 121.98 433.66M121.98 433.66C142.103 438.476 173.59 444.321 191.564 441.029C207.568 438.281 214.659 433.527 213.141 425.404C213.077 425.065 212.95 424.731 212.791 424.425C202.067 403.722 202.491 391.119 211.733 368.56C212.082 367.709 212.13 366.73 211.871 365.847C193.912 304.592 195.02 272.156 221.779 251.338C246.579 232.044 284.924 235.379 305.866 258.803C321.117 275.861 325.281 297.141 317.022 328.429M202.702 328.586C173.495 313.193 150.158 311.779 108.35 365.332C100.008 377.484 97.0704 383.534 95.1406 392.843C91.3833 408.525 90.0784 418.199 92.5056 427.538M95.8407 462.469C103.495 463.051 115.782 461.501 126.459 464.795M95.8407 462.469C104.578 487.651 133.124 494.615 142.909 495.983C139.502 494.204 126.72 470.958 126.459 464.795M311.812 434.581C307.711 434.547 303.811 432.02 299.224 426.403C298.154 425.094 298.129 423.242 298.999 421.792C307.169 408.185 306.893 395.766 301.856 371.625C301.68 370.779 301.778 369.886 302.139 369.1C309.684 352.672 313.712 340.969 317.022 328.429M311.812 434.581C316.261 434.619 320.945 431.721 327 426.654C327.17 426.511 327.332 426.35 327.476 426.181C353.144 396.012 371.573 379.355 387.408 374.041M311.812 434.581C316.2 424.206 318.042 417.841 316.548 402.244C313.623 363.366 326.797 357.4 338.227 360.834C357.174 368.422 357.868 376.298 360.733 391.14M317.022 328.429C332.17 322.069 341.836 319.207 355.793 328.522C382.968 350.853 383.548 358.871 387.408 374.041M387.408 374.041C389.684 373.277 391.906 372.748 394.088 372.446M379.17 418.69C395.177 407.362 414.148 402.452 412.46 416.356C412.414 416.731 412.299 417.109 412.136 417.449C410.469 420.932 408.642 423.917 406.58 426.474M379.17 418.69C387.293 427.159 394.848 427.27 406.58 426.474M406.58 426.474C399.844 434.826 390.595 438.622 376.194 440.345C375.941 440.375 375.678 440.432 375.436 440.51C346.083 449.963 354.547 467.03 362.871 475.62C410.294 523.591 441.511 507.271 475.974 491.908C486.198 488.49 493.59 488.969 508.293 494.363C496.568 477.697 488.165 472.236 471.352 474.932C471.111 474.97 470.873 475.033 470.644 475.114C450.828 482.205 423.725 485.4 412.387 469.401C408.743 464.259 403.57 461.603 398.183 461.194C392.968 460.798 395.696 469.657 401.253 469.757C401.623 469.764 401.99 469.671 402.336 469.537C426.108 460.322 439.865 443.571 442.829 426.091M394.088 372.446C405.919 346.741 419.485 339.52 449.302 332.487C468.32 328.001 491.811 344.984 487.257 366.797C487.189 367.126 487.066 367.457 486.912 367.754C473.971 392.718 464.888 395.091 456.426 415.148C447.913 435.326 465.711 427.173 466.916 415.944C471.47 424.218 469.728 428.202 466.194 434.014C465.717 434.797 464.978 435.394 464.105 435.678C455.616 438.443 450.632 437.744 442.829 426.091M394.088 372.446C406.751 370.696 418.076 376.616 430.758 388.949M442.829 426.091C444.366 417.024 443 407.762 438.622 399.253M430.758 388.949C432.066 390.221 433.389 391.562 434.729 392.97C436.22 395.006 437.517 397.106 438.622 399.253M430.758 388.949C429.128 379.437 431.636 372.69 439.334 359.543C439.496 359.266 439.696 359.001 439.926 358.777C448.44 350.479 460.806 354.859 461.855 363.698C461.982 364.767 461.462 365.785 460.666 366.51C449.387 376.787 444.097 383.966 438.622 399.253" stroke="#E9E9E9" stroke-width="4" stroke-linecap="round" stroke-linejoin="round"/>
<path d="M295.275 412.033C286.851 419.457 275.908 420.298 269.301 416.334C269.263 409.711 274.748 404.487 272.731 393.498C281.572 382.214 295.163 377.881 301.717 383.744C303.85 394.574 299.405 409.063 295.275 412.033Z" fill="#FF0266"/>
<path d="M212.674 382.295C219.791 378.835 231.656 384.183 240.151 392.412C242.165 399.839 237.648 402.529 243.153 415.976C236.724 423.514 222.967 420.549 213.965 410.227C208.38 396.89 208.986 383.243 212.674 382.295Z" fill="#FF0266"/>
<path d="M263.817 420.765C272.79 416.748 275.687 411.108 278.028 397.542C278.148 396.849 278.442 396.192 278.895 395.654C284.878 388.545 289.211 385.594 295.117 384.078M300.611 383.069C298.603 383.331 296.797 383.646 295.117 384.078M271.029 415.91C290.216 416.862 296.667 410.615 295.117 384.078" stroke="black" stroke-width="4" stroke-linecap="round"/>
<path d="M246.24 418.981C237.612 415.255 234.644 409.708 231.849 396.201C231.713 395.543 231.417 394.921 230.979 394.411C225.031 387.49 220.822 384.678 215.193 383.353M209.979 382.523C211.88 382.72 213.594 382.976 215.193 383.353M239.243 414.366C221.23 415.937 214.888 409.907 215.193 383.353" stroke="black" stroke-width="4" stroke-linecap="round"/>
</g>
</svg>
