<svg width="510" height="744" viewBox="0 0 510 744" fill="none" xmlns="http://www.w3.org/2000/svg">
<mask id="mask0_1149_670" style="mask-type:alpha" maskUnits="userSpaceOnUse" x="24" y="36" width="462" height="673">
<ellipse cx="255" cy="372.5" rx="231" ry="336.5" fill="#D9D9D9"/>
</mask>
<g mask="url(#mask0_1149_670)">
<path d="M940.797 636.945C907.253 665.166 745.578 714.25 470.837 704.502C209.132 717.5 39.0081 704.502 -7.92258 636.945C-54.8533 569.389 114.681 546.406 247 588C337.5 580.621 493.214 584.785 542.479 585.676C550.566 585.823 558.554 585.063 566.534 583.747C751.334 553.269 992.094 593.789 940.797 636.945Z" fill="#69F0AE"/>
<path d="M-119 620.253C-119 570.745 -63.4818 588.423 -17.9325 616.089C13.4706 635.162 13.6537 700.128 -12.8277 674.658V674.658C-62.6949 626.697 -23.5752 608.525 37.9787 586.372C88.9318 568.034 187.106 580.055 219.41 584.74C226.518 585.771 233.605 586.497 240.786 586.682C356.694 589.667 462.501 581.293 572.058 590.445C589.623 591.912 607.337 591.508 624.765 588.866C710.74 575.832 749.704 575.633 817.987 583.765C904.562 600.526 943.562 612.76 943.049 633.61C942.736 646.326 939.17 656.01 933.727 663.15C906.27 699.165 896.732 651.326 940.994 641.74C991.665 630.766 1025.5 624.126 993.529 566.173" stroke="black" stroke-width="4" stroke-linecap="round" stroke-linejoin="round"/>
<path d="M208.636 627.889C213.725 631.154 217.24 631.702 219.383 637.985M219.383 637.985C221.808 631.723 221.698 626.953 220.035 621.049M219.383 637.985C223.599 633.208 226.04 631.525 230.457 630.494" stroke="black" stroke-width="4" stroke-linecap="round" stroke-linejoin="round"/>
<path d="M364 602.865C368.664 606.143 371.886 606.693 373.851 613M373.851 613C376.073 606.714 375.973 601.926 374.448 596M373.851 613C377.715 608.205 379.952 606.515 384 605.481" stroke="black" stroke-width="4" stroke-linecap="round" stroke-linejoin="round"/>
<path d="M285.497 665.994C291.369 668.97 292.307 672.373 293.639 678.695C294.821 673.15 296.809 671.327 302.432 670.228" stroke="black" stroke-width="4" stroke-linecap="round" stroke-linejoin="round"/>
<path d="M415.118 619.747C420.99 622.723 421.928 626.126 423.26 632.448C424.443 626.903 426.43 625.08 432.054 623.98" stroke="black" stroke-width="4" stroke-linecap="round" stroke-linejoin="round"/>
<path d="M169.303 524.114C169.303 550.306 148.382 562.646 122.575 562.646C96.7679 562.646 75.847 550.306 75.847 524.114C75.847 497.922 108.622 535.97 122.575 511.929C136.529 487.887 169.303 497.922 169.303 524.114Z" fill="#69F0AE"/>
<path d="M114.468 594.386C123.538 582.133 125.997 572.892 126.139 552.964C126.142 552.571 126.084 552.166 125.969 551.791C121.534 537.345 114.94 533.217 94.3619 535.1M131.655 535.1C135.255 525.89 140.117 524.868 150.788 525.979" stroke="black" stroke-width="4" stroke-linecap="round" stroke-linejoin="round"/>
</g>
<mask id="mask1_1149_670" style="mask-type:alpha" maskUnits="userSpaceOnUse" x="0" y="2" width="382" height="330">
<path d="M31.7833 161.89C68.5619 70.971 147.004 -11.0017 243.924 4.01396C246.751 4.45197 249.504 4.93198 252.171 5.45686C258.013 6.26365 268.866 8.79225 277.642 10.9549C286.64 13.1726 295.318 16.595 303.011 21.7628C311.232 27.2857 320.115 33.9294 329.686 41.0521C346.193 53.338 364.746 74.2964 375.063 92.1005C390.781 119.224 377.462 142.009 346.554 147.24C316.948 152.251 276.813 157.803 242.187 177.797C197.156 203.8 153.169 257.271 135.527 285.604C130.61 293.501 118.736 310.508 111.096 315.815C78.0864 338.746 28.3942 338.721 6.62127 304.936C-4.38408 287.86 0.251984 275.309 6.69757 234.406C7.84452 227.128 9.49499 219.857 11.9424 212.907C18.2391 195.027 24.877 178.962 31.7833 161.89Z" fill="#F8F8F8"/>
</mask>
<g mask="url(#mask1_1149_670)">
<path d="M484 371.5C484 464.07 458.239 547.789 416.693 608.31C375.14 668.839 317.939 706 255 706C192.061 706 134.86 668.839 93.3072 608.31C51.7611 547.789 26 464.07 26 371.5C26 278.93 51.7611 195.211 93.3072 134.69C134.86 74.1607 192.061 37 255 37C317.939 37 375.14 74.1607 416.693 134.69C458.239 195.211 484 278.93 484 371.5Z" fill="#E9E9E9" stroke="black" stroke-width="4"/>
</g>
<path d="M484 372.5C484 465.07 458.239 548.789 416.693 609.31C375.14 669.839 317.939 707 255 707C192.061 707 134.86 669.839 93.3072 609.31C51.7611 548.789 26 465.07 26 372.5C26 279.93 51.7611 196.211 93.3072 135.69C134.86 75.1607 192.061 38 255 38C317.939 38 375.14 75.1607 416.693 135.69C458.239 196.211 484 279.93 484 372.5Z" stroke="black" stroke-width="4"/>
<path d="M508 372.5C508 474.735 479.553 567.204 433.663 634.058C387.768 700.922 324.567 742 255 742C185.433 742 122.232 700.922 76.3367 634.058C30.4474 567.204 2 474.735 2 372.5C2 270.265 30.4474 177.796 76.3367 110.942C122.232 44.0781 185.433 3 255 3C324.567 3 387.768 44.0781 433.663 110.942C479.553 177.796 508 270.265 508 372.5Z" stroke="black" stroke-width="4"/>
<path d="M239 586V288.117H421V586H239Z" stroke="black" stroke-width="4"/>
<path d="M262.461 351.301V320.91C262.461 318.701 264.252 316.91 266.461 316.91H296.852C299.061 316.91 300.852 318.701 300.852 320.91V351.301C300.852 353.51 299.061 355.301 296.852 355.301H266.461C264.252 355.301 262.461 353.51 262.461 351.301Z" fill="#D9D9D9" stroke="black" stroke-width="4"/>
<path d="M298.008 413.863V383.473C298.008 381.264 299.799 379.473 302.008 379.473H332.398C334.608 379.473 336.398 381.264 336.398 383.473V413.863C336.398 416.072 334.608 417.863 332.398 417.863H302.008C299.799 417.863 298.008 416.072 298.008 413.863Z" stroke="black" stroke-width="4"/>
<path d="M258.195 473.582V443.191C258.195 440.982 259.986 439.191 262.195 439.191H292.586C294.795 439.191 296.586 440.982 296.586 443.191V473.582C296.586 475.791 294.795 477.582 292.586 477.582H262.195C259.986 477.582 258.195 475.791 258.195 473.582Z" stroke="black" stroke-width="4"/>
<path d="M310.094 351.301V320.91C310.094 318.701 311.885 316.91 314.094 316.91H344.484C346.694 316.91 348.484 318.701 348.484 320.91V351.301C348.484 353.51 346.694 355.301 344.484 355.301H314.094C311.885 355.301 310.094 353.51 310.094 351.301Z" stroke="black" stroke-width="4"/>
<path d="M345.641 413.863V383.473C345.641 381.264 347.431 379.473 349.641 379.473H380.031C382.24 379.473 384.031 381.264 384.031 383.473V413.863C384.031 416.072 382.24 417.863 380.031 417.863H349.641C347.431 417.863 345.641 416.072 345.641 413.863Z" fill="#D9D9D9" stroke="black" stroke-width="4"/>
<path d="M305.828 473.582V443.191C305.828 440.982 307.619 439.191 309.828 439.191H340.219C342.428 439.191 344.219 440.982 344.219 443.191V473.582C344.219 475.791 342.428 477.582 340.219 477.582H309.828C307.619 477.582 305.828 475.791 305.828 473.582Z" fill="#D9D9D9" stroke="black" stroke-width="4"/>
<path d="M293.031 585.645V517.039H364.48V585.645" stroke="black" stroke-width="4"/>
<path d="M328.578 517.395V584.223" stroke="black" stroke-width="4"/>
<circle cx="334.977" cy="551.52" r="2.13281" fill="black"/>
<circle cx="322.18" cy="551.52" r="2.13281" fill="black"/>
<path d="M284.246 241.847C261.5 223.975 221 261.278 221 261.278L291.458 347C291.458 347 323.098 337.285 319.752 313.854C316.407 290.423 291.458 288.137 291.458 288.137C291.458 288.137 307.547 260.156 284.246 241.847Z" fill="#CDCDCD" stroke="black" stroke-width="4"/>
<path d="M83.7919 379H284.659C284.659 379 302 371.719 302 354.246C302 336.773 284.659 330.949 284.659 330.949C284.659 330.949 287.267 303.283 271.653 290.178C256.04 277.074 239.861 281.442 239.861 281.442C239.861 281.442 242.82 229.945 205.179 218.83C167.538 207.715 143.04 250.864 143.04 250.864C143.04 250.864 128.59 234.847 106.913 245.04C82.2057 256.658 89.5723 281.442 89.5723 281.442C89.5723 281.442 52 290.178 52 330.949C52 353.502 83.7919 379 83.7919 379Z" fill="#F8F7F7" stroke="black" stroke-width="4"/>
</svg>
