<svg width="510" height="743" viewBox="0 0 510 743" fill="none" xmlns="http://www.w3.org/2000/svg">
<mask id="mask0_1149_770" style="mask-type:alpha" maskUnits="userSpaceOnUse" x="24" y="35" width="462" height="673">
<path d="M486 371.5C486 557.344 382.578 708 255 708C127.422 708 24 557.344 24 371.5C24 185.656 127.422 35 255 35C382.578 35 486 185.656 486 371.5Z" fill="white"/>
</mask>
<g mask="url(#mask0_1149_770)">
<path d="M277 596L446 570C446 570 499.465 465.986 504 388.5C508.543 310.88 509.844 263.711 467.5 198.5C405.151 102.481 358.845 22.3209 244.5 28.0002C84.4603 35.9492 8.40927 228.344 13.4998 388.5C15.9781 466.471 71.9998 579.5 71.9998 579.5L277 596Z" fill="#A3B6FC"/>
<path d="M940.797 635.945C907.253 664.166 745.577 713.25 470.837 703.501C209.132 716.5 39.008 703.501 -7.92267 635.945C-54.8534 568.389 143.299 551.422 275.617 593.017C331.514 569.465 407.557 563.911 466.222 566.724C521.255 569.362 590.378 577.461 645.366 574.003C812.251 563.509 985.011 598.748 940.797 635.945Z" fill="#69F0AE"/>
<path d="M-119 619.253C-119 569.745 -63.4818 587.423 -17.9325 615.089C13.4706 634.162 13.6537 699.128 -12.8277 673.658V673.658C-62.6949 625.697 -23.5752 607.525 37.9787 585.372C84.3659 568.677 192.16 580.475 242.464 587.302C260.216 589.712 278.237 589.572 295.913 586.657C404.725 568.715 474.398 566.758 570.028 578.727C589.759 581.197 609.773 580.972 629.486 578.367C712.84 567.354 750.632 574.743 817.987 582.765C904.562 599.526 943.562 611.76 943.049 632.61C942.736 645.326 939.17 655.01 933.727 662.15C906.27 698.165 896.732 650.326 940.994 640.74C991.666 629.766 1025.5 623.126 993.529 565.173" stroke="black" stroke-width="4" stroke-linecap="round" stroke-linejoin="round"/>
<path d="M208.636 626.889C213.725 630.154 217.24 630.702 219.383 636.985M219.383 636.985C221.808 630.723 221.698 625.953 220.035 620.049M219.383 636.985C223.599 632.208 226.04 630.525 230.457 629.494" stroke="black" stroke-width="4" stroke-linecap="round" stroke-linejoin="round"/>
<path d="M296 651.839C301.089 655.105 304.604 655.653 306.748 661.935M306.748 661.935C309.172 655.674 306.101 651.839 309 645M306.748 661.935C310.963 657.159 313.404 655.475 317.821 654.445" stroke="black" stroke-width="4" stroke-linecap="round" stroke-linejoin="round"/>
<path d="M246 383C257.788 386.046 259.672 389.529 262.346 396C264.72 390.324 268.71 388.458 280 387.333" stroke="#764949" stroke-width="4" stroke-linecap="round" stroke-linejoin="round"/>
<path d="M276 396C284.321 398.109 285.651 400.52 287.538 405C289.214 401.071 292.031 399.779 300 399" stroke="#764949" stroke-width="4" stroke-linecap="round" stroke-linejoin="round"/>
<path d="M287.989 379.117C295.31 380.306 296.743 382.553 298.912 386.792C299.833 382.713 302.056 381.126 308.712 379.489" stroke="#764949" stroke-width="4" stroke-linecap="round" stroke-linejoin="round"/>
<path d="M415.118 618.747C420.99 621.723 421.928 625.126 423.26 631.448C424.443 625.903 426.43 624.08 432.054 622.98" stroke="black" stroke-width="4" stroke-linecap="round" stroke-linejoin="round"/>
</g>
<path d="M484 371.5C484 464.07 458.239 547.789 416.693 608.31C375.14 668.839 317.939 706 255 706C192.061 706 134.86 668.839 93.3072 608.31C51.7611 547.789 26 464.07 26 371.5C26 278.93 51.7611 195.211 93.3072 134.69C134.86 74.1607 192.061 37 255 37C317.939 37 375.14 74.1607 416.693 134.69C458.239 195.211 484 278.93 484 371.5Z" stroke="black" stroke-width="4"/>
<path d="M508 371.5C508 473.735 479.553 566.204 433.663 633.058C387.768 699.922 324.567 741 255 741C185.433 741 122.232 699.922 76.3367 633.058C30.4474 566.204 2 473.735 2 371.5C2 269.265 30.4474 176.796 76.3367 109.942C122.232 43.0781 185.433 2 255 2C324.567 2 387.768 43.0781 433.663 109.942C479.553 176.796 508 269.265 508 371.5Z" stroke="black" stroke-width="4"/>
<mask id="mask1_1149_770" style="mask-type:alpha" maskUnits="userSpaceOnUse" x="0" y="2" width="382" height="330">
<path d="M31.7833 161.89C68.5619 70.971 147.004 -11.0017 243.924 4.01396C246.751 4.45197 249.504 4.93198 252.171 5.45686C258.013 6.26365 268.866 8.79225 277.642 10.9549C286.64 13.1726 295.318 16.595 303.011 21.7628C311.232 27.2857 320.115 33.9294 329.686 41.0521C346.193 53.338 364.746 74.2964 375.063 92.1005C390.781 119.224 377.462 142.009 346.554 147.24C316.948 152.251 276.813 157.803 242.187 177.797C197.156 203.8 153.169 257.271 135.527 285.604C130.61 293.501 118.736 310.508 111.096 315.815C78.0864 338.746 28.3942 338.721 6.62127 304.936C-4.38408 287.86 0.251984 275.309 6.69757 234.406C7.84452 227.128 9.49499 219.857 11.9424 212.907C18.2391 195.027 24.877 178.962 31.7833 161.89Z" fill="white"/>
</mask>
<g mask="url(#mask1_1149_770)">
<path d="M484 371.5C484 464.07 458.239 547.789 416.693 608.31C375.14 668.839 317.939 706 255 706C192.061 706 134.86 668.839 93.3072 608.31C51.7611 547.789 26 464.07 26 371.5C26 278.93 51.7611 195.211 93.3072 134.69C134.86 74.1607 192.061 37 255 37C317.939 37 375.14 74.1607 416.693 134.69C458.239 195.211 484 278.93 484 371.5Z" fill="#FCFCFC" stroke="black" stroke-width="4"/>
</g>
<circle cx="386" cy="282" r="61" fill="#FFDE03"/>
<path d="M119.61 444C109.5 468.5 103 579 103 579H152L146.5 507.865L133.729 444C133.729 444 129.72 419.5 119.61 444Z" fill="#D9D9D9"/>
<path d="M165.167 438.489L199.645 487.125C201.909 490.318 198.714 494.526 195.031 493.203L168.595 483.713C168.201 483.572 167.831 483.37 167.5 483.114L137.139 459.653C135.847 458.654 135.291 456.97 135.736 455.399L139.885 440.737C139.968 440.443 140.085 440.159 140.233 439.892L143.538 433.912C144.471 432.224 146.475 431.442 148.304 432.052L163.169 437.007C163.976 437.276 164.676 437.795 165.167 438.489Z" fill="#D9D9D9"/>
<path d="M122.647 391.506L153.773 343.648C156.011 340.208 161.359 341.966 161.12 346.063L157.598 406.316C157.535 407.393 157.04 408.399 156.225 409.105L144.017 419.685C143.062 420.513 141.773 420.841 140.539 420.57L125.142 417.19C123.307 416.787 122 415.162 122 413.283L122 393.686C122 392.912 122.225 392.155 122.647 391.506Z" fill="#D9D9D9"/>
<path d="M119.904 438.089L119.904 449C119.904 451.209 118.113 453 115.904 453L69.9999 453L43.0806 450.222C38.9281 449.793 38.1258 444.089 41.999 442.532L103.023 417.996C104.523 417.393 106.238 417.752 107.37 418.905L117.13 428.847C117.626 429.352 117.98 429.981 118.153 430.668L119.782 437.109C119.863 437.429 119.904 437.758 119.904 438.089Z" fill="#D9D9D9"/>
<path d="M153 427.5C153 436.72 137 446 126.5 439.889C117.28 439.889 109.805 432.415 109.805 423.195C109.805 413.974 117.28 406.5 126.5 406.5C135.72 406.5 153 418.28 153 427.5Z" fill="#E9E9E9"/>
<path d="M126.5 442.5L116.5 576.5H146L135 442.5H126.5Z" fill="#D9D9D9" stroke="black" stroke-width="4"/>
<path d="M156 440L188.047 482.88C188.719 483.779 187.628 484.932 186.693 484.312L142.5 455L137 440L141 435L156 440Z" fill="#D9D9D9" stroke="black" stroke-width="4"/>
<path d="M127.737 403.437L152.736 356.1C153.26 355.108 154.77 355.599 154.611 356.709L147.077 409.202L135.884 420.602L129.651 419.132L127.737 403.437Z" fill="#D9D9D9" stroke="black" stroke-width="4"/>
<path d="M108.299 446.83L54.7677 446.476C53.6457 446.469 53.3849 444.903 54.444 444.532L104.497 427.011L119.774 431.687L121.343 437.895L108.299 446.83Z" fill="#D9D9D9" stroke="black" stroke-width="4"/>
<circle cx="132" cy="430" r="11" fill="white" stroke="black" stroke-width="4"/>
</svg>
