<svg width="1080" height="1080" viewBox="0 0 1080 1080" fill="none" xmlns="http://www.w3.org/2000/svg">
<path d="M939.494 98.0325C921.082 97.0162 911.604 88.1205 904.193 80.0197C902.694 78.3818 902.832 75.8266 904.517 74.3805C913.554 66.6217 928.805 55.4579 947.491 59.5324C969.263 62.706 974.165 69.9956 979.739 79.1601C980.749 80.8211 980.438 82.9821 978.949 84.2327C970.315 91.4868 958.291 99.0701 939.494 98.0325Z" fill="#69F0AE"/>
<path d="M1038.5 153.531C1041.13 172.088 1033.32 184.106 1026.6 193.207C1025.4 194.827 1023.18 195.3 1021.46 194.243C1011.1 187.856 1001.65 178.756 998.996 160.03C996.372 141.531 1003.34 130.169 1010.6 120.266C1011.91 118.474 1014.44 118.112 1016.21 119.452C1025.16 126.222 1035.9 135.249 1038.5 153.531Z" fill="#69F0AE"/>
<path d="M971.992 152.533C957.953 164.591 942.096 164.168 930.506 163.333C928.291 163.173 926.624 161.232 926.782 159.018C927.558 148.161 929.048 134.01 942.993 122.032C957.183 109.843 971.934 107.875 984.472 108.313C986.691 108.391 988.36 110.331 988.21 112.546C987.414 124.235 986.037 140.469 971.992 152.533Z" fill="#69F0AE"/>
<path d="M957.297 136.078C949.588 142.699 947.851 150.878 943.134 152.496C941.959 152.899 940.984 151.757 941.073 150.518C941.507 144.443 942.34 136.525 950.143 129.822C958.084 123.002 966.337 121.901 973.353 122.146C974.595 122.19 975.578 123.321 975.029 124.435C972.842 128.875 965.003 129.459 957.297 136.078Z" fill="#F8F8F8" fill-opacity="0.6"/>
<path d="M943.294 77.1604C932.808 76.1302 925.426 79.4701 920.61 77.853C919.242 77.3935 919.366 75.641 920.577 74.8559C925.468 71.6865 932.031 67.9587 942.637 69.0008C953.492 70.0673 960.479 74.4306 965.563 78.8865C966.649 79.8382 966.443 81.5792 965.016 81.7947C960.069 82.5414 953.768 78.1896 943.294 77.1604Z" fill="#F8F8F8" fill-opacity="0.6"/>
<path d="M1016.61 158.206C1018.34 166.849 1022.86 172.001 1022.92 176.294C1022.94 177.707 1021.26 178.099 1020.17 177.203C1016.29 174.022 1011.62 169.602 1009.86 160.822C1008.06 151.815 1009.91 145.058 1012.35 139.799C1012.94 138.517 1014.64 138.22 1015.19 139.519C1016.86 143.396 1014.89 149.574 1016.61 158.206Z" fill="#F8F8F8" fill-opacity="0.6"/>
<path d="M941.145 93.9744C932.317 93.4871 926.034 91.3629 921.137 88.5009C916.21 85.6207 912.552 81.9201 909.018 78.0284C908.461 77.4161 908.516 76.4562 909.133 75.9128C912.954 72.546 917.022 69.2656 922.283 66.9165C927.513 64.5811 934.048 63.1133 942.821 63.5976C951.805 64.0935 957.917 66.0431 962.676 68.7948C967.472 71.568 971.061 75.2449 974.945 79.5379C975.504 80.1567 975.447 81.1184 974.831 81.6613C970.89 85.1403 966.848 88.4158 961.633 90.7361C956.451 93.0419 949.973 94.4617 941.145 93.9744Z" stroke="black" stroke-width="5"/>
<path d="M1034.37 154.576C1035.61 163.33 1034.75 169.906 1032.9 175.266C1031.03 180.661 1028.12 184.969 1024.99 189.194C1024.49 189.859 1023.54 189.992 1022.89 189.493C1018.84 186.401 1014.83 183.05 1011.5 178.348C1008.19 173.673 1005.48 167.549 1004.25 158.849C1002.98 149.941 1003.71 143.567 1005.48 138.362C1007.26 133.118 1010.17 128.881 1013.62 124.236C1014.12 123.566 1015.08 123.436 1015.73 123.933C1019.91 127.122 1023.91 130.448 1027.2 135.111C1030.47 139.745 1033.13 145.822 1034.37 154.576Z" stroke="black" stroke-width="5"/>
<path d="M968.447 148.484C961.74 154.245 955.737 157.062 950.222 158.388C944.672 159.721 939.471 159.584 934.226 159.223C933.401 159.167 932.776 158.436 932.844 157.617C933.27 152.542 933.934 147.359 936.103 142.021C938.26 136.715 941.959 131.131 948.624 125.406C955.449 119.543 961.209 116.718 966.548 115.408C971.929 114.088 977.064 114.256 982.838 114.664C983.671 114.723 984.295 115.457 984.227 116.275C983.792 121.514 983.143 126.676 980.987 131.961C978.845 137.213 975.154 142.723 968.447 148.484Z" stroke="black" stroke-width="5"/>
<g filter="url(#filter0_i_1319_5768)">
<path d="M1037.5 1024.03C1037.5 892.533 847.992 1018.03 897.991 898.533" stroke="black" stroke-width="8" stroke-linecap="round"/>
</g>
<g filter="url(#filter1_i_1319_5768)">
<rect x="898.98" y="866.08" width="25.2609" height="29.471" rx="2.80676" transform="rotate(22.9435 898.98 866.08)" fill="#1E1E1E"/>
<rect x="898.98" y="866.08" width="25.2609" height="29.471" rx="2.80676" transform="rotate(22.9435 898.98 866.08)" fill="black" fill-opacity="0.2"/>
<rect x="907.429" y="860.513" width="14.0338" height="18.244" rx="1.40338" transform="rotate(22.9435 907.429 860.513)" stroke="#1E1E1E" stroke-width="2.80676"/>
<rect x="907.429" y="860.513" width="14.0338" height="18.244" rx="1.40338" transform="rotate(22.9435 907.429 860.513)" stroke="black" stroke-opacity="0.2" stroke-width="2.80676"/>
</g>
<path d="M874.243 901.225C874.947 901.232 875.859 901.057 875.818 900.353C875.756 899.287 874.431 897.497 873.318 895.629C872.598 894.419 872.537 892.965 872.889 891.602C874.21 886.492 875.383 879.524 873.807 880.2C870.37 881.674 864.955 893.546 866.308 896.701C867.554 899.605 870.251 901.184 874.243 901.225Z" fill="#F8F8F8" fill-opacity="0.3"/>
<circle cx="588" cy="991" r="40" fill="#FF0266"/>
<path d="M559.083 979.182C559.327 979.717 559.811 980.132 560.397 980.169C563.719 980.379 567.569 976.31 572.064 972.636C579.483 966.573 590.014 965.936 599.236 968.536C606.987 970.722 614.002 973.685 614.001 971.001C614.001 965.044 609.21 960.906 603.045 958.197C590.862 952.843 576.01 954.088 565.825 962.653C560.182 967.398 556.468 973.437 559.083 979.182Z" fill="#F8F8F8" fill-opacity="0.6"/>
<g filter="url(#filter2_i_1319_5768)">
<path d="M49.4899 50.6405C96.0833 10.0198 291.521 5.35537 324.227 50.6406C335.783 66.6419 310.803 101.215 283.335 95.3474C276.363 93.8583 271.647 87.0222 272.393 79.9325C276.67 39.2826 362.161 69.9315 411.227 65.1409C432.236 63.0896 429.227 78.6395 418.727 86.0341C406.097 97.7229 393.949 101.641 398.974 85.6404C408.437 55.512 487.974 11.141 518.474 26.1415C534.474 36.6402 511.662 59.8194 489.227 86.0341C479.722 97.1393 507.227 92.1393 525.727 86.0342C544.227 79.929 598.227 62.0328 614.727 65.5328C631.227 69.0328 619.819 87.58 602.727 86.0342C589.727 84.8584 570.727 81.5328 592.727 46.5329C603.227 34.5329 611.439 25.4726 647.227 34.5348C663.714 38.7097 682.868 64.1115 656.727 91.6388C649.227 99.5366 634.171 97.6388 637.227 86.0361C639.438 77.6388 761.492 18.1379 809.492 23.1394C891.492 41.6394 758.227 127.141 716.227 141.141C674.227 155.141 701.227 79.0342 901.227 25.0343C937.874 15.1394 952.727 14.6035 987.727 19.1408C1013.2 22.4433 1054.78 33.7937 1055.99 79.0343C1056.56 100.039 1025.65 112.704 1004.29 103.699C1000.29 102.015 996.919 98.4774 997.027 94.1453C997.32 82.4131 1014.46 74.5341 1031.49 86.0343C1051.49 99.5346 1080.73 213.639 1048.73 257.639C1031.49 284.639 998.492 288.035 1021.99 395.535C1040.9 482.035 1063.99 485.535 1059.99 581.535C1059.99 610.035 1029.35 621.535 1021.99 602.535C1019.84 596.976 1019.23 592.768 1019.61 589.495C1020.64 580.644 1033.21 580.959 1038.85 587.863C1052.9 605.082 1056.99 635.557 1056.99 665.035C1056.99 701.035 1010.36 749.841 1006.99 818.035C1005.26 853.035 1032.22 908.035 1058.49 975.035C1072.22 1010.03 1025.39 1039.87 1008.49 1028.53C997.992 1020.53 996.992 1003.03 1005.49 996.035C1013.69 989.282 1040.04 996.489 1037.07 1023.94C1036.84 1026 1036.24 1028.02 1035.16 1029.79C1020.62 1053.53 967.433 1053.53 938.992 1053.53C892.483 1051.89 803.857 1038.73 809.492 1009.53C812.387 994.535 830.992 986.535 851.492 994.535C865.492 1006.03 851.492 1027.64 822.992 1037.03C753.448 1059.96 682.926 1041.03 686.992 1011.53C694.389 957.868 739.492 938.535 746.492 947.035C755.551 958.035 686.992 1037.03 603.492 1038.53C581.46 1038.93 581.082 1015.93 581.492 994.535C585.999 987.605 586.992 984.535 595.492 989.035C597.992 990.358 595.492 1033.15 538.992 1043.03C524.137 1045.63 540.294 1005.45 528.492 1007.03C499.311 1007.65 469.492 1063.03 457.992 1053.53C435.992 1055.53 468.492 984.535 457.992 984.535C443.076 984.535 402.492 1058.3 393.492 1055.53C376.492 1051.53 428.492 986.097 422.492 980.535C399.573 974.654 377.714 980.373 306.992 1022.03C294.492 1029.4 304.492 1042.15 323.992 1043.03C334.492 1043.51 352.803 1004.73 340.492 957.035C331.492 943.535 235.492 1059.27 178.492 1055.53C142.695 1054.86 130.52 1047.68 95.9909 1025.03C72.5723 1009.68 69.1181 996.057 35.9393 990.355C34.6585 990.134 33.3206 990.015 32.0233 990.091C5.2087 991.648 10.0373 1025.23 32.9895 1033.53C68.9724 1043.43 82.2672 1008.26 87.9908 986.034C109.491 902.534 57.8734 887.612 32.9896 748.534C25.0277 704.034 17.751 669.849 49.4897 593.034C56.2306 576.72 53.3497 546.029 38.1115 532.606C35.0289 529.891 30.627 528.631 26.963 530.488C19.817 534.112 14.9755 544.251 17.1476 558.033C18.4667 566.404 26.4306 573.364 34.4281 570.561C49.7156 565.205 57.0954 538.565 60.9898 457.534C55.5961 380.127 43.633 336.903 22.5659 267.092C21.858 264.746 21.4864 262.287 21.4896 259.837C21.5146 240.977 22.7507 227.402 56.861 231.032C59.5907 231.323 62.2759 232.108 64.6088 233.555C80.1602 243.201 86.756 260.501 76.5923 270.097C74.1655 272.388 70.748 273.402 67.456 272.852C48.133 269.622 24.5182 237.458 20.9902 166.639C18.2253 111.139 20.9902 75.4869 49.4899 50.6405Z" stroke="black" stroke-width="8"/>
</g>
<path d="M194.11 82.0684C197.376 111.99 174.147 128.161 141.749 129.991C138.821 130.157 136.875 133.236 137.968 135.957C153.827 175.432 138.706 207.484 100.859 207.041C77.1209 206.763 33.6324 155.233 48.2333 93.6226C49.3525 88.8999 52.0126 84.6796 55.6769 81.497C106.943 36.9711 161.099 40.4603 183.537 59.8479C189.924 65.3671 193.193 73.6766 194.11 82.0684Z" fill="#FFDE03"/>
<path d="M181.444 70.1674C203.64 94.7278 169.92 123.5 131.699 124.739C128.661 124.838 126.548 128.035 127.748 130.828C143.845 168.317 136.81 193.505 105.944 193.667C83.9521 193.783 57.9744 154.228 57.4723 103.287C57.3875 94.6875 62.103 86.8222 69.4332 82.3252C121.512 50.3753 159.525 45.917 181.444 70.1674Z" stroke="black" stroke-width="5"/>
<path d="M126.966 65.7703C126.531 66.4047 126.557 67.259 127.101 67.8037C131.615 72.3297 146.591 71.0225 157.852 76.8338C173.354 84.8338 167.849 95.834 175.85 95.8346C187.619 95.8355 178.351 73.334 167.85 66.8333C155.821 59.3866 132.903 57.1174 126.966 65.7703Z" fill="#F8F8F8" fill-opacity="0.6"/>
<path d="M167.946 1011.27C162.077 1015.56 161.068 1021.42 160.809 1026.43C160.669 1029.16 162.499 1031.69 165.13 1032.44C170.079 1033.83 176.097 1034.81 182.005 1030.49C189.85 1024.75 190.525 1017.25 186.711 1012.04C182.897 1006.82 175.792 1005.53 167.946 1011.27Z" fill="#7B1FA2"/>
<path d="M109.825 975.501C107.702 994.775 118.727 1008.74 126.882 1018.55C129.958 1022.25 135.715 1022.91 139.383 1019.8C147.874 1012.6 157.511 1002.7 159.595 983.771C162.285 959.355 153.283 945.722 141.428 944.417C129.573 943.111 112.514 951.084 109.825 975.501Z" fill="#7B1FA2"/>
<path d="M154.309 990.295C153.485 991.366 151.913 991.006 151.377 989.766C150.194 987.029 149.792 984.512 149.623 982.043C148.953 972.262 146.952 961.91 138.447 957.034C136.977 956.191 135.46 955.123 134 953.5C130.587 949.704 136.919 948.498 143.534 950.717C152.481 953.719 155.516 964.129 156.559 973.508C157.292 980.103 157.144 986.61 154.309 990.295Z" fill="#F8F8F8" fill-opacity="0.6"/>
<path d="M178.499 1011.5C176.683 1012.02 181.756 1015.88 182.499 1018.5C183.243 1021.12 181.683 1026.02 183.499 1025.5C186.955 1024.52 186.74 1019.62 185.997 1017C185.253 1014.38 182.499 1010.36 178.499 1011.5Z" fill="#F8F8F8" fill-opacity="0.6"/>
<g filter="url(#filter3_i_1319_5768)">
<path d="M919.934 847.383L941.728 797.124" stroke="#FF0266" stroke-width="8" stroke-linecap="round"/>
</g>
<g filter="url(#filter4_i_1319_5768)">
<path d="M901.992 846.33L882.764 795.034" stroke="#FF0266" stroke-width="8" stroke-linecap="round"/>
</g>
<g filter="url(#filter5_i_1319_5768)">
<path d="M935.457 861.074L984.5 836.666" stroke="#FF0266" stroke-width="8" stroke-linecap="round"/>
</g>
<defs>
<filter id="filter0_i_1319_5768" x="885.59" y="894.531" width="155.906" height="137.502" filterUnits="userSpaceOnUse" color-interpolation-filters="sRGB">
<feFlood flood-opacity="0" result="BackgroundImageFix"/>
<feBlend mode="normal" in="SourceGraphic" in2="BackgroundImageFix" result="shape"/>
<feColorMatrix in="SourceAlpha" type="matrix" values="0 0 0 0 0 0 0 0 0 0 0 0 0 0 0 0 0 0 127 0" result="hardAlpha"/>
<feOffset dy="4"/>
<feGaussianBlur stdDeviation="2"/>
<feComposite in2="hardAlpha" operator="arithmetic" k2="-1" k3="1"/>
<feColorMatrix type="matrix" values="0 0 0 0 1 0 0 0 0 1 0 0 0 0 1 0 0 0 0.5 0"/>
<feBlend mode="normal" in2="shape" result="effect1_innerShadow_1319_5768"/>
</filter>
<filter id="filter1_i_1319_5768" x="888.363" y="859.545" width="33.0078" height="46.6504" filterUnits="userSpaceOnUse" color-interpolation-filters="sRGB">
<feFlood flood-opacity="0" result="BackgroundImageFix"/>
<feBlend mode="normal" in="SourceGraphic" in2="BackgroundImageFix" result="shape"/>
<feColorMatrix in="SourceAlpha" type="matrix" values="0 0 0 0 0 0 0 0 0 0 0 0 0 0 0 0 0 0 127 0" result="hardAlpha"/>
<feOffset dy="4"/>
<feGaussianBlur stdDeviation="2"/>
<feComposite in2="hardAlpha" operator="arithmetic" k2="-1" k3="1"/>
<feColorMatrix type="matrix" values="0 0 0 0 1 0 0 0 0 1 0 0 0 0 1 0 0 0 0.5 0"/>
<feBlend mode="normal" in2="shape" result="effect1_innerShadow_1319_5768"/>
</filter>
<filter id="filter2_i_1319_5768" x="9.78125" y="12.4004" width="1057.16" height="1051.22" filterUnits="userSpaceOnUse" color-interpolation-filters="sRGB">
<feFlood flood-opacity="0" result="BackgroundImageFix"/>
<feBlend mode="normal" in="SourceGraphic" in2="BackgroundImageFix" result="shape"/>
<feColorMatrix in="SourceAlpha" type="matrix" values="0 0 0 0 0 0 0 0 0 0 0 0 0 0 0 0 0 0 127 0" result="hardAlpha"/>
<feOffset dy="4"/>
<feGaussianBlur stdDeviation="2"/>
<feComposite in2="hardAlpha" operator="arithmetic" k2="-1" k3="1"/>
<feColorMatrix type="matrix" values="0 0 0 0 1 0 0 0 0 1 0 0 0 0 1 0 0 0 0.5 0"/>
<feBlend mode="normal" in2="shape" result="effect1_innerShadow_1319_5768"/>
</filter>
<filter id="filter3_i_1319_5768" x="915.934" y="793.123" width="29.7969" height="62.2617" filterUnits="userSpaceOnUse" color-interpolation-filters="sRGB">
<feFlood flood-opacity="0" result="BackgroundImageFix"/>
<feBlend mode="normal" in="SourceGraphic" in2="BackgroundImageFix" result="shape"/>
<feColorMatrix in="SourceAlpha" type="matrix" values="0 0 0 0 0 0 0 0 0 0 0 0 0 0 0 0 0 0 127 0" result="hardAlpha"/>
<feOffset dy="4"/>
<feGaussianBlur stdDeviation="2"/>
<feComposite in2="hardAlpha" operator="arithmetic" k2="-1" k3="1"/>
<feColorMatrix type="matrix" values="0 0 0 0 1 0 0 0 0 1 0 0 0 0 1 0 0 0 0.5 0"/>
<feBlend mode="normal" in2="shape" result="effect1_innerShadow_1319_5768"/>
</filter>
<filter id="filter4_i_1319_5768" x="878.762" y="791.033" width="27.2305" height="63.2988" filterUnits="userSpaceOnUse" color-interpolation-filters="sRGB">
<feFlood flood-opacity="0" result="BackgroundImageFix"/>
<feBlend mode="normal" in="SourceGraphic" in2="BackgroundImageFix" result="shape"/>
<feColorMatrix in="SourceAlpha" type="matrix" values="0 0 0 0 0 0 0 0 0 0 0 0 0 0 0 0 0 0 127 0" result="hardAlpha"/>
<feOffset dy="4"/>
<feGaussianBlur stdDeviation="2"/>
<feComposite in2="hardAlpha" operator="arithmetic" k2="-1" k3="1"/>
<feColorMatrix type="matrix" values="0 0 0 0 1 0 0 0 0 1 0 0 0 0 1 0 0 0 0.5 0"/>
<feBlend mode="normal" in2="shape" result="effect1_innerShadow_1319_5768"/>
</filter>
<filter id="filter5_i_1319_5768" x="931.457" y="832.666" width="57.043" height="36.4082" filterUnits="userSpaceOnUse" color-interpolation-filters="sRGB">
<feFlood flood-opacity="0" result="BackgroundImageFix"/>
<feBlend mode="normal" in="SourceGraphic" in2="BackgroundImageFix" result="shape"/>
<feColorMatrix in="SourceAlpha" type="matrix" values="0 0 0 0 0 0 0 0 0 0 0 0 0 0 0 0 0 0 127 0" result="hardAlpha"/>
<feOffset dy="4"/>
<feGaussianBlur stdDeviation="2"/>
<feComposite in2="hardAlpha" operator="arithmetic" k2="-1" k3="1"/>
<feColorMatrix type="matrix" values="0 0 0 0 1 0 0 0 0 1 0 0 0 0 1 0 0 0 0.5 0"/>
<feBlend mode="normal" in2="shape" result="effect1_innerShadow_1319_5768"/>
</filter>
</defs>
</svg>
