<svg width="512" height="512" viewBox="0 0 512 512" fill="none" xmlns="http://www.w3.org/2000/svg">
<g clip-path="url(#clip0_1528_8743)">
<circle cx="256" cy="256" r="166" fill="#FFDE03" stroke="black" stroke-width="18"/>
<path d="M346.655 292.918C310.225 306.767 271.337 306.458 238.143 301.221C206.454 296.221 180.533 286.821 167.925 281.671C173.927 269.446 187.058 245.199 207.422 220.411C228.753 194.444 257.614 168.379 294.044 154.53C330.474 140.681 369.361 140.99 402.556 146.227C434.244 151.227 460.166 160.627 472.774 165.777C466.772 178.002 453.641 202.248 433.277 227.037C411.945 253.003 383.084 279.068 346.655 292.918Z" fill="#69F0AE" stroke="black" stroke-width="18"/>
<path d="M241.896 240.45C242.118 241.07 242.697 241.508 243.353 241.565C268.315 243.744 281.196 207.842 317.592 197.429C363.824 184.2 365.666 195.783 381.164 180.013C403.964 156.814 369.573 150.926 320.121 164.607C280.503 175.567 232.368 213.826 241.896 240.45Z" fill="#F8F8F8" fill-opacity="0.6"/>
<path d="M131.476 214.668C98.0935 190.155 76.0196 155.213 61.6582 122.62C47.9272 91.4572 41.4878 62.9892 38.9147 49.1194C52.9187 47.4227 82.0089 45.0449 115.853 48.8178C151.251 52.7639 191.198 63.366 224.58 87.8798C257.963 112.394 280.037 147.335 294.398 179.928C308.129 211.091 314.569 239.559 317.142 253.429C303.138 255.126 274.048 257.503 240.204 253.73C204.806 249.784 164.859 239.182 131.476 214.668Z" fill="#69F0AE" stroke="black" stroke-width="18"/>
<path d="M133.188 93.2441C132.908 93.7965 132.94 94.4744 133.28 94.9923C144.187 111.603 168.951 119.814 194.128 132.519C226.186 148.698 231.488 193.719 249.871 190.436C276.916 185.606 247.246 121.77 213.271 104.105C186.029 89.9408 146.072 67.862 133.188 93.2441Z" fill="#F8F8F8" fill-opacity="0.6"/>
<path d="M201.785 348.866C215.573 361.136 236.207 367.198 255.694 363.353" stroke="black" stroke-width="18" stroke-linecap="round"/>
</g>
<defs>
<clipPath id="clip0_1528_8743">
<rect width="512" height="512" fill="white"/>
</clipPath>
</defs>
</svg>
