<svg width="512" height="512" viewBox="0 0 512 512" fill="none" xmlns="http://www.w3.org/2000/svg">
<g clip-path="url(#clip0_1528_8966)">
<circle cx="256" cy="256" r="166" fill="#FFDE03" stroke="black" stroke-width="18"/>
<path d="M224.252 234.888C224.252 262.666 213.003 254.5 199.126 254.5C185.249 254.5 174 262.666 174 234.888C174 207.11 196.5 208.003 199.126 208.003C201.752 208.004 224.252 207.11 224.252 234.888Z" fill="black"/>
<path d="M221 227.5C212.02 227.5 204.5 233.598 204.5 244C204.5 233.654 197.148 227.5 188 227.5C197.316 227.5 204.5 222.991 204.5 211C204.5 222.991 212.02 227.5 221 227.5Z" fill="#F8F8F8" fill-opacity="0.6"/>
<path d="M338.252 234.888C338.252 262.666 327.003 254.5 313.126 254.5C299.249 254.5 288 262.666 288 234.888C288 207.11 310.5 208.003 313.126 208.003C315.752 208.004 338.252 207.11 338.252 234.888Z" fill="black"/>
<path d="M335 227.5C326.02 227.5 318.5 233.598 318.5 244C318.5 233.654 311.148 227.5 302 227.5C311.316 227.5 318.5 222.991 318.5 211C318.5 222.991 326.02 227.5 335 227.5Z" fill="#F8F8F8" fill-opacity="0.6"/>
<path d="M228 319.001C244.5 327.271 266 327.771 283.821 319" stroke="black" stroke-width="18" stroke-linecap="round"/>
<path d="M299.877 146.59C318.883 140.903 336.076 131.956 350.53 119.134C366.741 104.753 379.054 85.9032 386.662 62.2593C394.533 85.9542 407.207 104.81 423.631 119.176C438.14 131.866 455.25 140.765 473.927 146.456C455.04 153.325 437.866 163.677 423.389 177.297C407.104 192.617 394.414 211.903 386.546 234.642C378.806 212.053 366.324 192.827 350.199 177.512C335.852 163.886 318.776 153.5 299.877 146.59Z" fill="#FF0266" stroke="black" stroke-width="18"/>
<path d="M86.8154 367.998C97.6756 363.933 107.613 358.197 116.23 350.515C126.263 341.571 134.174 330.29 139.652 316.58C145.306 330.331 153.428 341.621 163.594 350.557C172.217 358.135 182.087 363.823 192.772 367.877C181.917 372.679 171.974 379.195 163.353 387.346C153.311 396.84 145.196 408.425 139.544 421.849C133.984 408.524 126 396.986 116.067 387.505C107.526 379.354 97.6494 372.823 86.8154 367.998Z" fill="#FF0266" stroke="black" stroke-width="18"/>
</g>
<defs>
<clipPath id="clip0_1528_8966">
<rect width="512" height="512" fill="white"/>
</clipPath>
</defs>
</svg>
