<svg width="512" height="512" viewBox="0 0 512 512" fill="none" xmlns="http://www.w3.org/2000/svg">
<path fill-rule="evenodd" clip-rule="evenodd" d="M255.5 503C388.877 503 497 449.735 497 405C497 360.265 388.877 313 255.5 313C122.123 313 14 360.265 14 405C14 449.735 122.123 503 255.5 503ZM256 458C339.947 458 408 426.714 408 400.487C408 374.261 339.947 353 256 353C172.053 353 104 374.261 104 400.487C104 426.714 172.053 458 256 458Z" fill="#7B1FA2"/>
<path d="M488 405C488 412.53 483.343 422.021 471.916 432.573C460.673 442.955 443.956 453.316 422.693 462.516C380.224 480.89 321.08 494 255.5 494V512C323.297 512 384.903 498.478 429.84 479.036C452.279 469.327 470.929 457.984 484.127 445.797C497.141 433.78 506 419.837 506 405H488ZM255.5 322C321.223 322 380.444 333.66 422.936 350.585C444.217 359.062 460.895 368.699 472.086 378.518C483.435 388.475 488 397.558 488 405H506C506 390.074 497.05 376.474 483.957 364.987C470.707 353.362 452.019 342.795 429.597 333.863C384.683 315.973 323.154 304 255.5 304V322ZM23 405C23 397.558 27.5653 388.475 38.9139 378.518C50.1051 368.699 66.7834 359.062 88.0642 350.585C130.556 333.66 189.777 322 255.5 322V304C187.846 304 126.317 315.973 81.4032 333.863C58.9811 342.795 40.2925 353.362 27.0426 364.987C13.9501 376.474 5 390.074 5 405H23ZM255.5 494C189.92 494 130.776 480.89 88.3074 462.516C67.044 453.316 50.3271 442.955 39.0839 432.573C27.6566 422.021 23 412.53 23 405H5C5 419.837 13.8588 433.78 26.8726 445.797C40.0705 457.984 58.7206 469.327 81.16 479.036C126.097 498.478 187.703 512 255.5 512V494ZM399 400.487C399 403.132 397.139 407.73 390.183 413.717C383.482 419.486 373.31 425.407 360.112 430.733C333.786 441.356 296.945 449 256 449V467C299.003 467 338.161 459.001 366.848 447.425C381.157 441.651 393.245 434.833 401.927 427.359C410.354 420.104 417 410.956 417 400.487H399ZM256 362C297.322 362 334.375 367.245 360.796 375.499C374.061 379.643 384.14 384.391 390.708 389.242C397.452 394.224 399 398.128 399 400.487H417C417 389.734 410.041 381.145 401.402 374.764C392.587 368.253 380.406 362.768 366.164 358.318C337.572 349.386 298.625 344 256 344V362ZM113 400.487C113 398.128 114.548 394.224 121.292 389.242C127.86 384.391 137.939 379.643 151.204 375.499C177.625 367.245 214.678 362 256 362V344C213.375 344 174.428 349.386 145.836 358.318C131.594 362.768 119.413 368.253 110.598 374.764C101.959 381.145 95 389.734 95 400.487H113ZM256 449C215.055 449 178.214 441.356 151.888 430.733C138.69 425.407 128.518 419.486 121.817 413.717C114.861 407.73 113 403.132 113 400.487H95C95 410.956 101.646 420.104 110.073 427.359C118.755 434.833 130.843 441.651 145.152 447.425C173.839 459.001 212.997 467 256 467V449Z" fill="black"/>
<path d="M127.001 457.002C118.5 440 107.029 454.071 61.5013 424.002C41.1664 410.571 64.8559 381.675 48.0026 383.142C47.9069 383.151 47.7996 383.169 47.7068 383.193C30.985 387.648 28.36 414.037 47.8491 431.501C68.5013 451.502 132.5 472 127.001 457.002Z" fill="#F8F8F8" fill-opacity="0.6"/>
<circle cx="256" cy="256" r="166" fill="#FFDE03" stroke="black" stroke-width="18"/>
<path d="M228 353.001C244.5 361.271 266 361.771 283.821 353" stroke="black" stroke-width="18" stroke-linecap="round"/>
<path d="M176 257.963C176 244.546 191.693 257.963 205.5 257.963C219.307 257.963 231.5 244.546 231.5 257.963C231.5 271.379 216 274.961 205.5 274.961C195 274.961 176 271.379 176 257.963Z" fill="black"/>
<path d="M281 257.963C281 244.546 296.693 257.963 310.5 257.963C324.307 257.963 336.5 244.546 336.5 257.963C336.5 271.379 321 274.961 310.5 274.961C300 274.961 281 271.379 281 257.963Z" fill="black"/>
</svg>
