<svg width="512" height="512" viewBox="0 0 512 512" fill="none" xmlns="http://www.w3.org/2000/svg">
<rect x="156.746" y="81" width="198" height="90" rx="16" stroke="black" stroke-width="18"/>
<rect x="29.7461" y="136" width="451" height="289" rx="16" fill="#FF0266" stroke="black" stroke-width="18"/>
<line x1="27.7461" y1="245" x2="489.746" y2="245" stroke="black" stroke-width="18"/>
<rect x="189.746" y="214" width="132" height="57" rx="12" fill="black"/>
<path d="M405.916 402.959C406.092 402.746 406.348 402.56 406.604 402.455C421.226 396.43 431.126 396.143 438.011 395.664C445.924 395.114 450.734 388.219 453.055 380.635C457.755 365.281 454.044 363.641 460.154 345.63C460.209 345.467 460.3 345.287 460.404 345.15C464.86 339.201 466.507 355.568 467.008 383.699C467.257 397.687 455.854 409.219 441.874 409.76C419.367 410.63 399.189 411.09 405.916 402.959Z" fill="#F8F8F8" fill-opacity="0.6"/>
<path d="M104.565 403.072C104.389 402.859 104.132 402.674 103.877 402.568C89.2546 396.543 79.3546 396.256 72.4691 395.777C64.5564 395.227 59.7469 388.333 57.4252 380.748C52.7252 365.394 56.4367 363.754 50.3268 345.743C50.2715 345.58 50.18 345.401 50.0767 345.263C45.62 339.314 43.9739 355.681 43.4728 383.812C43.2236 397.8 54.6268 409.332 68.6061 409.873C91.1131 410.743 111.292 411.203 104.565 403.072Z" fill="#F8F8F8" fill-opacity="0.6"/>
<path d="M86.1115 158.521C85.8917 158.695 85.5792 158.846 85.2678 158.933C80.635 160.232 77.101 161.114 74.3812 161.719C65.2009 163.763 59.2338 168.511 56.6864 174.826C53.1278 183.647 56.0746 185.305 50.3456 196.746C50.2782 196.881 50.1681 197.028 50.0401 197.142C45.903 200.814 44.2007 191.402 43.5869 174.678C43.1703 163.323 57.1838 153.464 73.9403 153.339C85.704 153.252 91.7255 154.057 86.1115 158.521Z" fill="#F8F8F8" fill-opacity="0.6"/>
<path d="M425.42 158.521C425.64 158.695 425.952 158.846 426.263 158.933C430.896 160.232 434.43 161.114 437.15 161.719C446.33 163.763 452.297 168.511 454.845 174.826C458.403 183.647 455.457 185.305 461.186 196.746C461.253 196.881 461.363 197.028 461.491 197.142C465.628 200.814 467.331 191.402 467.944 174.678C468.361 163.323 454.347 153.464 437.591 153.339C425.827 153.252 419.806 154.057 425.42 158.521Z" fill="#F8F8F8" fill-opacity="0.6"/>
</svg>
