<svg width="512" height="512" viewBox="0 0 512 512" fill="none" xmlns="http://www.w3.org/2000/svg">
<path d="M191 463.955C213.85 404.128 219.515 365.493 224 292.583L282.5 283C286.216 372.895 292.22 417.644 326 463.955C286 485.5 231.5 490 191 463.955Z" fill="#845126" stroke="black" stroke-width="18" stroke-linejoin="round"/>
<path d="M70.092 227.144C17.9576 159.913 55.4806 105.778 141.5 111C167 36.4998 279 15.5 319 69.0003C371.786 59.2094 421.336 99.2068 406.347 135.76C462.391 135.76 483.895 227.144 438.278 237.588C454.571 308.085 373.765 330.931 335.968 300.251C305.341 346.596 210.851 340.069 188.042 283.933C108.541 345.944 29.0356 283.933 70.092 227.144Z" fill="#69F0AE" stroke="black" stroke-width="18" stroke-linejoin="round"/>
<path d="M214.978 210.055C214.891 209.623 214.63 209.221 214.253 208.992C206.005 203.986 201.318 223.18 176.165 224.347C141.628 225.948 139.38 197.313 131.853 204.768C121.535 214.987 143.481 236.11 162.079 238.456C164.722 238.789 167.38 239.111 170.012 239.52C189.473 242.547 219.055 230.311 214.978 210.055Z" fill="#F8F8F8" fill-opacity="0.6"/>
<path d="M394.977 222.913C394.877 222.484 394.603 222.091 394.22 221.874C385.817 217.131 381.74 236.465 356.636 238.426C322.167 241.119 319.015 212.57 311.728 220.258C301.737 230.8 324.341 251.217 343.004 252.973C345.656 253.223 348.323 253.46 350.967 253.786C370.514 256.196 399.694 243.031 394.977 222.913Z" fill="#F8F8F8" fill-opacity="0.6"/>
<path d="M310.401 155.253C310.357 154.476 309.786 153.802 309.027 153.633C293.442 150.173 303.877 163.759 272.751 165.449C244.199 166.998 235.151 136.214 228.324 144.794C218.28 157.416 251.437 179.898 267.308 179.375C285.013 178.792 311.768 179.582 310.401 155.253Z" fill="#F8F8F8" fill-opacity="0.6"/>
<path d="M286.476 422.661C293.489 441.265 306.088 453.741 297.302 457.053C288.517 460.364 275.71 447.967 268.697 429.362C261.685 410.758 263.122 392.991 271.907 389.68C280.693 386.368 279.464 404.056 286.476 422.661Z" fill="#724723"/>
</svg>
