<?xml version="1.0" standalone="no"?>
<!DOCTYPE svg PUBLIC "-//W3C//DTD SVG 20010904//EN"
 "http://www.w3.org/TR/2001/REC-SVG-20010904/DTD/svg10.dtd">
<svg version="1.0" xmlns="http://www.w3.org/2000/svg"
 width="326.000000pt" height="326.000000pt" viewBox="0 0 326.000000 326.000000"
 preserveAspectRatio="xMidYMid meet">
<metadata>
Created by potrace 1.14, written by Peter Selinger 2001-2017
</metadata>
<g transform="translate(0.000000,326.000000) scale(0.100000,-0.100000)"
fill="#000000" stroke="none">
<path d="M1450 3239 c-158 -16 -391 -84 -532 -155 -366 -183 -664 -512 -802
-886 -85 -229 -118 -469 -97 -700 21 -234 63 -385 166 -593 158 -319 431 -586
760 -741 441 -208 969 -203 1402 14 578 290 930 886 900 1522 -16 324 -128
641 -315 890 -352 467 -902 708 -1482 649z m498 -313 c237 -60 433 -169 608
-338 198 -192 327 -429 384 -708 43 -205 25 -474 -45 -681 -105 -310 -341
-586 -642 -750 l-63 -34 -22 27 c-73 85 -284 148 -495 148 l-83 0 0 362 c0
343 1 360 18 346 26 -24 148 -82 227 -109 58 -20 90 -24 186 -24 113 0 116 1
192 38 43 22 103 62 137 94 63 58 175 215 186 260 9 34 -14 53 -121 104 -335
158 -585 73 -790 -267 l-35 -58 0 222 0 222 66 0 c36 0 112 9 167 21 325 65
498 274 537 649 20 192 15 200 -117 200 -107 0 -258 -22 -336 -49 -214 -74
-342 -217 -409 -456 -22 -79 -23 -87 -26 -821 l-3 -742 -52 -6 c-136 -18 -255
-65 -314 -124 l-36 -36 -61 33 c-241 131 -444 339 -563 575 -57 113 -108 266
-129 386 -20 117 -15 387 10 495 107 473 436 838 890 990 164 55 236 65 446
61 159 -3 200 -8 288 -30z m287 -468 c-39 -360 -204 -522 -562 -553 -97 -8
-91 -18 -69 118 42 259 146 394 351 460 73 24 141 35 218 36 l69 1 -7 -62z
m-25 -852 c36 -8 91 -26 123 -40 l58 -26 -18 -32 c-34 -61 -147 -167 -209
-195 -51 -24 -72 -28 -149 -28 -74 0 -105 5 -174 30 -46 16 -85 35 -88 42 -7
17 57 103 119 158 107 96 199 120 338 91z m-308 -1165 c42 -11 91 -27 109 -37
l33 -16 -26 -14 c-14 -7 -61 -24 -104 -36 -71 -21 -100 -23 -284 -23 -184 0
-213 2 -284 23 -43 12 -90 29 -104 36 l-26 14 30 15 c39 20 127 45 199 57 102
15 368 5 457 -19z"/>
<path d="M755 1796 c-140 -37 -185 -61 -185 -100 0 -31 64 -160 115 -232 116
-163 261 -235 445 -220 140 10 313 68 326 108 8 28 -79 203 -141 281 -135 170
-323 224 -560 163z m332 -137 c39 -19 78 -48 107 -80 44 -49 106 -146 106
-166 0 -20 -147 -46 -233 -41 -103 6 -164 35 -235 112 -43 47 -112 151 -112
169 0 6 123 35 170 40 67 7 135 -5 197 -34z"/>
</g>
</svg>
